<mxfile host="Electron" agent="Mozilla/5.0 (Macintosh; Intel Mac OS X 10_15_7) AppleWebKit/537.36 (KHTML, like Gecko) draw.io/28.1.2 Chrome/138.0.7204.243 Electron/37.4.0 Safari/537.36" version="28.1.2">
  <diagram name="Page-1" id="IdUjiPZuFqKM6ow7K8KD">
    <mxGraphModel dx="1426" dy="763" grid="1" gridSize="10" guides="1" tooltips="1" connect="1" arrows="1" fold="1" page="1" pageScale="1" pageWidth="1169" pageHeight="827" math="0" shadow="0">
      <root>
        <mxCell id="0" />
        <mxCell id="1" parent="0" />
        <mxCell id="ksFMzYPhadkrR75nrk3E-1" value="[1, 4, 3, 5, 5, 2, 3, 6]" style="text;html=1;align=center;verticalAlign=middle;resizable=0;points=[];autosize=1;strokeColor=none;fillColor=none;" parent="1" vertex="1">
          <mxGeometry x="376" y="235" width="130" height="30" as="geometry" />
        </mxCell>
        <mxCell id="ksFMzYPhadkrR75nrk3E-2" value="[1, 2, 1, 0, 3, 1, 1, 0]" style="text;html=1;align=center;verticalAlign=middle;resizable=0;points=[];autosize=1;strokeColor=none;fillColor=none;" parent="1" vertex="1">
          <mxGeometry x="376" y="265" width="130" height="30" as="geometry" />
        </mxCell>
        <mxCell id="ksFMzYPhadkrR75nrk3E-4" value="1" style="text;html=1;align=center;verticalAlign=middle;resizable=0;points=[];autosize=1;strokeColor=default;fillColor=none;" parent="1" vertex="1">
          <mxGeometry x="246" y="565" width="30" height="30" as="geometry" />
        </mxCell>
        <mxCell id="ksFMzYPhadkrR75nrk3E-5" value="4" style="text;html=1;align=center;verticalAlign=middle;resizable=0;points=[];autosize=1;strokeColor=default;fillColor=none;" parent="1" vertex="1">
          <mxGeometry x="286" y="565" width="30" height="30" as="geometry" />
        </mxCell>
        <mxCell id="ksFMzYPhadkrR75nrk3E-34" value="Temperatures" style="text;html=1;align=center;verticalAlign=middle;resizable=0;points=[];autosize=1;strokeColor=none;fillColor=none;" parent="1" vertex="1">
          <mxGeometry x="276" y="235" width="100" height="30" as="geometry" />
        </mxCell>
        <mxCell id="ksFMzYPhadkrR75nrk3E-35" value="Result" style="text;html=1;align=center;verticalAlign=middle;resizable=0;points=[];autosize=1;strokeColor=none;fillColor=none;" parent="1" vertex="1">
          <mxGeometry x="296" y="265" width="60" height="30" as="geometry" />
        </mxCell>
        <mxCell id="ksFMzYPhadkrR75nrk3E-36" value="Left -&amp;gt; Right 遍历温度，出栈时更新" style="text;html=1;align=center;verticalAlign=middle;resizable=0;points=[];autosize=1;strokeColor=none;fillColor=none;" parent="1" vertex="1">
          <mxGeometry x="286" y="605" width="210" height="30" as="geometry" />
        </mxCell>
        <mxCell id="ksFMzYPhadkrR75nrk3E-37" value="Right -&amp;gt; Left 遍历温度，入栈时更新" style="text;html=1;align=center;verticalAlign=middle;resizable=0;points=[];autosize=1;strokeColor=none;fillColor=none;" parent="1" vertex="1">
          <mxGeometry x="691" y="605" width="210" height="30" as="geometry" />
        </mxCell>
        <mxCell id="ksFMzYPhadkrR75nrk3E-38" value="" style="group" parent="1" vertex="1" connectable="0">
          <mxGeometry x="893" y="475" width="30" height="120" as="geometry" />
        </mxCell>
        <mxCell id="ksFMzYPhadkrR75nrk3E-16" value="6" style="text;html=1;align=center;verticalAlign=middle;resizable=0;points=[];autosize=1;strokeColor=default;fillColor=none;" parent="ksFMzYPhadkrR75nrk3E-38" vertex="1">
          <mxGeometry y="90" width="30" height="30" as="geometry" />
        </mxCell>
        <mxCell id="ksFMzYPhadkrR75nrk3E-23" value="5" style="text;html=1;align=center;verticalAlign=middle;resizable=0;points=[];autosize=1;strokeColor=default;fillColor=none;" parent="ksFMzYPhadkrR75nrk3E-38" vertex="1">
          <mxGeometry y="60" width="30" height="30" as="geometry" />
        </mxCell>
        <mxCell id="ksFMzYPhadkrR75nrk3E-27" value="4" style="text;html=1;align=center;verticalAlign=middle;resizable=0;points=[];autosize=1;strokeColor=default;fillColor=none;" parent="ksFMzYPhadkrR75nrk3E-38" vertex="1">
          <mxGeometry y="30" width="30" height="30" as="geometry" />
        </mxCell>
        <mxCell id="ksFMzYPhadkrR75nrk3E-28" value="1" style="text;html=1;align=center;verticalAlign=middle;resizable=0;points=[];autosize=1;strokeColor=default;fillColor=none;" parent="ksFMzYPhadkrR75nrk3E-38" vertex="1">
          <mxGeometry width="30" height="30" as="geometry" />
        </mxCell>
        <mxCell id="ksFMzYPhadkrR75nrk3E-39" value="" style="group" parent="1" vertex="1" connectable="0">
          <mxGeometry x="676" y="505" width="30" height="90" as="geometry" />
        </mxCell>
        <mxCell id="ksFMzYPhadkrR75nrk3E-11" value="6" style="text;html=1;align=center;verticalAlign=middle;resizable=0;points=[];autosize=1;strokeColor=default;fillColor=none;" parent="ksFMzYPhadkrR75nrk3E-39" vertex="1">
          <mxGeometry y="60" width="30" height="30" as="geometry" />
        </mxCell>
        <mxCell id="ksFMzYPhadkrR75nrk3E-18" value="3" style="text;html=1;align=center;verticalAlign=middle;resizable=0;points=[];autosize=1;strokeColor=default;fillColor=none;" parent="ksFMzYPhadkrR75nrk3E-39" vertex="1">
          <mxGeometry y="30" width="30" height="30" as="geometry" />
        </mxCell>
        <mxCell id="ksFMzYPhadkrR75nrk3E-24" value="2" style="text;html=1;align=center;verticalAlign=middle;resizable=0;points=[];autosize=1;strokeColor=default;fillColor=none;" parent="ksFMzYPhadkrR75nrk3E-39" vertex="1">
          <mxGeometry width="30" height="30" as="geometry" />
        </mxCell>
        <mxCell id="ksFMzYPhadkrR75nrk3E-40" value="" style="group" parent="1" vertex="1" connectable="0">
          <mxGeometry x="849" y="505" width="30" height="90" as="geometry" />
        </mxCell>
        <mxCell id="ksFMzYPhadkrR75nrk3E-15" value="6" style="text;html=1;align=center;verticalAlign=middle;resizable=0;points=[];autosize=1;strokeColor=default;fillColor=none;" parent="ksFMzYPhadkrR75nrk3E-40" vertex="1">
          <mxGeometry y="60" width="30" height="30" as="geometry" />
        </mxCell>
        <mxCell id="ksFMzYPhadkrR75nrk3E-22" value="5" style="text;html=1;align=center;verticalAlign=middle;resizable=0;points=[];autosize=1;strokeColor=default;fillColor=none;" parent="ksFMzYPhadkrR75nrk3E-40" vertex="1">
          <mxGeometry y="30" width="30" height="30" as="geometry" />
        </mxCell>
        <mxCell id="ksFMzYPhadkrR75nrk3E-26" value="4" style="text;html=1;align=center;verticalAlign=middle;resizable=0;points=[];autosize=1;strokeColor=default;fillColor=none;" parent="ksFMzYPhadkrR75nrk3E-40" vertex="1">
          <mxGeometry width="30" height="30" as="geometry" />
        </mxCell>
        <mxCell id="ksFMzYPhadkrR75nrk3E-41" value="" style="group" parent="1" vertex="1" connectable="0">
          <mxGeometry x="806" y="505" width="30" height="90" as="geometry" />
        </mxCell>
        <mxCell id="ksFMzYPhadkrR75nrk3E-14" value="6" style="text;html=1;align=center;verticalAlign=middle;resizable=0;points=[];autosize=1;strokeColor=default;fillColor=none;" parent="ksFMzYPhadkrR75nrk3E-41" vertex="1">
          <mxGeometry y="60" width="30" height="30" as="geometry" />
        </mxCell>
        <mxCell id="ksFMzYPhadkrR75nrk3E-21" value="5" style="text;html=1;align=center;verticalAlign=middle;resizable=0;points=[];autosize=1;strokeColor=default;fillColor=none;" parent="ksFMzYPhadkrR75nrk3E-41" vertex="1">
          <mxGeometry y="30" width="30" height="30" as="geometry" />
        </mxCell>
        <mxCell id="ksFMzYPhadkrR75nrk3E-25" value="3" style="text;html=1;align=center;verticalAlign=middle;resizable=0;points=[];autosize=1;strokeColor=default;fillColor=none;" parent="ksFMzYPhadkrR75nrk3E-41" vertex="1">
          <mxGeometry width="30" height="30" as="geometry" />
        </mxCell>
        <mxCell id="ksFMzYPhadkrR75nrk3E-42" value="" style="group" parent="1" vertex="1" connectable="0">
          <mxGeometry x="766" y="535" width="30" height="60" as="geometry" />
        </mxCell>
        <mxCell id="ksFMzYPhadkrR75nrk3E-13" value="6" style="text;html=1;align=center;verticalAlign=middle;resizable=0;points=[];autosize=1;strokeColor=default;fillColor=none;" parent="ksFMzYPhadkrR75nrk3E-42" vertex="1">
          <mxGeometry y="30" width="30" height="30" as="geometry" />
        </mxCell>
        <mxCell id="ksFMzYPhadkrR75nrk3E-20" value="5" style="text;html=1;align=center;verticalAlign=middle;resizable=0;points=[];autosize=1;strokeColor=default;fillColor=none;" parent="ksFMzYPhadkrR75nrk3E-42" vertex="1">
          <mxGeometry width="30" height="30" as="geometry" />
        </mxCell>
        <mxCell id="ksFMzYPhadkrR75nrk3E-43" value="" style="group" parent="1" vertex="1" connectable="0">
          <mxGeometry x="721" y="535" width="30" height="60" as="geometry" />
        </mxCell>
        <mxCell id="ksFMzYPhadkrR75nrk3E-12" value="6" style="text;html=1;align=center;verticalAlign=middle;resizable=0;points=[];autosize=1;strokeColor=default;fillColor=none;" parent="ksFMzYPhadkrR75nrk3E-43" vertex="1">
          <mxGeometry y="30" width="30" height="30" as="geometry" />
        </mxCell>
        <mxCell id="ksFMzYPhadkrR75nrk3E-19" value="5" style="text;html=1;align=center;verticalAlign=middle;resizable=0;points=[];autosize=1;strokeColor=default;fillColor=none;" parent="ksFMzYPhadkrR75nrk3E-43" vertex="1">
          <mxGeometry width="30" height="30" as="geometry" />
        </mxCell>
        <mxCell id="ksFMzYPhadkrR75nrk3E-48" value="" style="endArrow=classic;html=1;rounded=0;entryX=0;entryY=0.5;entryDx=0;entryDy=0;entryPerimeter=0;" parent="1" target="ksFMzYPhadkrR75nrk3E-62" edge="1">
          <mxGeometry width="50" height="50" relative="1" as="geometry">
            <mxPoint x="608" y="352" as="sourcePoint" />
            <mxPoint x="796" y="352" as="targetPoint" />
          </mxGeometry>
        </mxCell>
        <mxCell id="ksFMzYPhadkrR75nrk3E-49" value="" style="endArrow=classic;html=1;rounded=0;" parent="1" edge="1">
          <mxGeometry width="50" height="50" relative="1" as="geometry">
            <mxPoint x="608" y="352" as="sourcePoint" />
            <mxPoint x="608" y="165" as="targetPoint" />
          </mxGeometry>
        </mxCell>
        <mxCell id="ksFMzYPhadkrR75nrk3E-50" value="1" style="text;html=1;align=center;verticalAlign=middle;resizable=0;points=[];autosize=1;strokeColor=none;fillColor=none;" parent="1" vertex="1">
          <mxGeometry x="576" y="325" width="30" height="30" as="geometry" />
        </mxCell>
        <mxCell id="ksFMzYPhadkrR75nrk3E-51" value="2" style="text;html=1;align=center;verticalAlign=middle;resizable=0;points=[];autosize=1;strokeColor=none;fillColor=none;" parent="1" vertex="1">
          <mxGeometry x="576" y="295" width="30" height="30" as="geometry" />
        </mxCell>
        <mxCell id="ksFMzYPhadkrR75nrk3E-52" value="3" style="text;html=1;align=center;verticalAlign=middle;resizable=0;points=[];autosize=1;strokeColor=none;fillColor=none;" parent="1" vertex="1">
          <mxGeometry x="576" y="265" width="30" height="30" as="geometry" />
        </mxCell>
        <mxCell id="ksFMzYPhadkrR75nrk3E-53" value="4" style="text;html=1;align=center;verticalAlign=middle;resizable=0;points=[];autosize=1;strokeColor=none;fillColor=none;" parent="1" vertex="1">
          <mxGeometry x="576" y="235" width="30" height="30" as="geometry" />
        </mxCell>
        <mxCell id="ksFMzYPhadkrR75nrk3E-54" value="5" style="text;html=1;align=center;verticalAlign=middle;resizable=0;points=[];autosize=1;strokeColor=none;fillColor=none;" parent="1" vertex="1">
          <mxGeometry x="576" y="205" width="30" height="30" as="geometry" />
        </mxCell>
        <mxCell id="ksFMzYPhadkrR75nrk3E-55" value="6" style="text;html=1;align=center;verticalAlign=middle;resizable=0;points=[];autosize=1;strokeColor=none;fillColor=none;" parent="1" vertex="1">
          <mxGeometry x="576" y="175" width="30" height="30" as="geometry" />
        </mxCell>
        <mxCell id="ksFMzYPhadkrR75nrk3E-56" value="1" style="text;html=1;align=center;verticalAlign=middle;resizable=0;points=[];autosize=1;strokeColor=none;fillColor=none;" parent="1" vertex="1">
          <mxGeometry x="606" y="355" width="30" height="30" as="geometry" />
        </mxCell>
        <mxCell id="ksFMzYPhadkrR75nrk3E-57" value="2" style="text;html=1;align=center;verticalAlign=middle;resizable=0;points=[];autosize=1;strokeColor=none;fillColor=none;" parent="1" vertex="1">
          <mxGeometry x="636" y="355" width="30" height="30" as="geometry" />
        </mxCell>
        <mxCell id="ksFMzYPhadkrR75nrk3E-58" value="3" style="text;html=1;align=center;verticalAlign=middle;resizable=0;points=[];autosize=1;strokeColor=none;fillColor=none;" parent="1" vertex="1">
          <mxGeometry x="666" y="355" width="30" height="30" as="geometry" />
        </mxCell>
        <mxCell id="ksFMzYPhadkrR75nrk3E-59" value="4" style="text;html=1;align=center;verticalAlign=middle;resizable=0;points=[];autosize=1;strokeColor=none;fillColor=none;" parent="1" vertex="1">
          <mxGeometry x="696" y="355" width="30" height="30" as="geometry" />
        </mxCell>
        <mxCell id="ksFMzYPhadkrR75nrk3E-60" value="5" style="text;html=1;align=center;verticalAlign=middle;resizable=0;points=[];autosize=1;strokeColor=none;fillColor=none;" parent="1" vertex="1">
          <mxGeometry x="726" y="355" width="30" height="30" as="geometry" />
        </mxCell>
        <mxCell id="ksFMzYPhadkrR75nrk3E-61" value="6" style="text;html=1;align=center;verticalAlign=middle;resizable=0;points=[];autosize=1;strokeColor=none;fillColor=none;" parent="1" vertex="1">
          <mxGeometry x="756" y="355" width="30" height="30" as="geometry" />
        </mxCell>
        <mxCell id="ksFMzYPhadkrR75nrk3E-62" value="i" style="text;html=1;align=center;verticalAlign=middle;resizable=0;points=[];autosize=1;strokeColor=none;fillColor=none;" parent="1" vertex="1">
          <mxGeometry x="871" y="337" width="30" height="30" as="geometry" />
        </mxCell>
        <mxCell id="ksFMzYPhadkrR75nrk3E-63" value="t[i]" style="text;html=1;align=center;verticalAlign=middle;resizable=0;points=[];autosize=1;strokeColor=none;fillColor=none;" parent="1" vertex="1">
          <mxGeometry x="586" y="133" width="40" height="30" as="geometry" />
        </mxCell>
        <mxCell id="ksFMzYPhadkrR75nrk3E-64" value="" style="endArrow=none;html=1;rounded=0;" parent="1" edge="1">
          <mxGeometry width="50" height="50" relative="1" as="geometry">
            <mxPoint x="621" y="337" as="sourcePoint" />
            <mxPoint x="646" y="255" as="targetPoint" />
          </mxGeometry>
        </mxCell>
        <mxCell id="ksFMzYPhadkrR75nrk3E-65" value="" style="endArrow=none;html=1;rounded=0;" parent="1" edge="1">
          <mxGeometry width="50" height="50" relative="1" as="geometry">
            <mxPoint x="686" y="275" as="sourcePoint" />
            <mxPoint x="706" y="213" as="targetPoint" />
          </mxGeometry>
        </mxCell>
        <mxCell id="ksFMzYPhadkrR75nrk3E-66" value="" style="endArrow=none;html=1;rounded=0;" parent="1" edge="1">
          <mxGeometry width="50" height="50" relative="1" as="geometry">
            <mxPoint x="646" y="255" as="sourcePoint" />
            <mxPoint x="686" y="275" as="targetPoint" />
          </mxGeometry>
        </mxCell>
        <mxCell id="ksFMzYPhadkrR75nrk3E-67" value="" style="endArrow=none;html=1;rounded=0;" parent="1" edge="1">
          <mxGeometry width="50" height="50" relative="1" as="geometry">
            <mxPoint x="706" y="213" as="sourcePoint" />
            <mxPoint x="736" y="213" as="targetPoint" />
          </mxGeometry>
        </mxCell>
        <mxCell id="ksFMzYPhadkrR75nrk3E-68" value="7" style="text;html=1;align=center;verticalAlign=middle;resizable=0;points=[];autosize=1;strokeColor=none;fillColor=none;" parent="1" vertex="1">
          <mxGeometry x="786" y="355" width="30" height="30" as="geometry" />
        </mxCell>
        <mxCell id="ksFMzYPhadkrR75nrk3E-69" value="8" style="text;html=1;align=center;verticalAlign=middle;resizable=0;points=[];autosize=1;strokeColor=none;fillColor=none;" parent="1" vertex="1">
          <mxGeometry x="816" y="355" width="30" height="30" as="geometry" />
        </mxCell>
        <mxCell id="ksFMzYPhadkrR75nrk3E-70" value="" style="endArrow=none;html=1;rounded=0;" parent="1" edge="1">
          <mxGeometry width="50" height="50" relative="1" as="geometry">
            <mxPoint x="736" y="213" as="sourcePoint" />
            <mxPoint x="766" y="313" as="targetPoint" />
          </mxGeometry>
        </mxCell>
        <mxCell id="ksFMzYPhadkrR75nrk3E-71" value="" style="endArrow=none;html=1;rounded=0;" parent="1" edge="1">
          <mxGeometry width="50" height="50" relative="1" as="geometry">
            <mxPoint x="766" y="314" as="sourcePoint" />
            <mxPoint x="806" y="274" as="targetPoint" />
          </mxGeometry>
        </mxCell>
        <mxCell id="ksFMzYPhadkrR75nrk3E-72" value="" style="endArrow=none;html=1;rounded=0;" parent="1" edge="1">
          <mxGeometry width="50" height="50" relative="1" as="geometry">
            <mxPoint x="806" y="274" as="sourcePoint" />
            <mxPoint x="836" y="195" as="targetPoint" />
          </mxGeometry>
        </mxCell>
        <mxCell id="ksFMzYPhadkrR75nrk3E-73" value="1" style="text;html=1;align=center;verticalAlign=middle;resizable=0;points=[];autosize=1;strokeColor=none;fillColor=none;" parent="1" vertex="1">
          <mxGeometry x="616" y="317" width="30" height="30" as="geometry" />
        </mxCell>
        <mxCell id="ksFMzYPhadkrR75nrk3E-74" value="3" style="text;html=1;align=center;verticalAlign=middle;resizable=0;points=[];autosize=1;strokeColor=none;fillColor=none;" parent="1" vertex="1">
          <mxGeometry x="671" y="269" width="30" height="30" as="geometry" />
        </mxCell>
        <mxCell id="ksFMzYPhadkrR75nrk3E-75" value="3" style="text;html=1;align=center;verticalAlign=middle;resizable=0;points=[];autosize=1;strokeColor=none;fillColor=none;" parent="1" vertex="1">
          <mxGeometry x="796" y="269" width="30" height="30" as="geometry" />
        </mxCell>
        <mxCell id="ksFMzYPhadkrR75nrk3E-76" value="2" style="text;html=1;align=center;verticalAlign=middle;resizable=0;points=[];autosize=1;strokeColor=none;fillColor=none;" parent="1" vertex="1">
          <mxGeometry x="751" y="307" width="30" height="30" as="geometry" />
        </mxCell>
        <mxCell id="ksFMzYPhadkrR75nrk3E-77" value="5" style="text;html=1;align=center;verticalAlign=middle;resizable=0;points=[];autosize=1;strokeColor=none;fillColor=none;" parent="1" vertex="1">
          <mxGeometry x="686" y="185" width="30" height="30" as="geometry" />
        </mxCell>
        <mxCell id="ksFMzYPhadkrR75nrk3E-78" value="5" style="text;html=1;align=center;verticalAlign=middle;resizable=0;points=[];autosize=1;strokeColor=none;fillColor=none;" parent="1" vertex="1">
          <mxGeometry x="722" y="185" width="30" height="30" as="geometry" />
        </mxCell>
        <mxCell id="ksFMzYPhadkrR75nrk3E-79" value="4" style="text;html=1;align=center;verticalAlign=middle;resizable=0;points=[];autosize=1;strokeColor=none;fillColor=none;" parent="1" vertex="1">
          <mxGeometry x="630" y="230" width="30" height="30" as="geometry" />
        </mxCell>
        <mxCell id="ksFMzYPhadkrR75nrk3E-80" value="6" style="text;html=1;align=center;verticalAlign=middle;resizable=0;points=[];autosize=1;strokeColor=none;fillColor=none;" parent="1" vertex="1">
          <mxGeometry x="822" y="169" width="30" height="30" as="geometry" />
        </mxCell>
        <mxCell id="ksFMzYPhadkrR75nrk3E-7" value="5" style="text;html=1;align=center;verticalAlign=middle;resizable=0;points=[];autosize=1;strokeColor=default;fillColor=none;" parent="1" vertex="1">
          <mxGeometry x="366" y="565" width="30" height="30" as="geometry" />
        </mxCell>
        <mxCell id="ksFMzYPhadkrR75nrk3E-8" value="5" style="text;html=1;align=center;verticalAlign=middle;resizable=0;points=[];autosize=1;strokeColor=default;fillColor=none;" parent="1" vertex="1">
          <mxGeometry x="406" y="565" width="30" height="30" as="geometry" />
        </mxCell>
        <mxCell id="ksFMzYPhadkrR75nrk3E-81" value="" style="group" parent="1" vertex="1" connectable="0">
          <mxGeometry x="326" y="535" width="30" height="60" as="geometry" />
        </mxCell>
        <mxCell id="ksFMzYPhadkrR75nrk3E-6" value="4" style="text;html=1;align=center;verticalAlign=middle;resizable=0;points=[];autosize=1;strokeColor=default;fillColor=none;" parent="ksFMzYPhadkrR75nrk3E-81" vertex="1">
          <mxGeometry y="30" width="30" height="30" as="geometry" />
        </mxCell>
        <mxCell id="ksFMzYPhadkrR75nrk3E-29" value="3" style="text;html=1;align=center;verticalAlign=middle;resizable=0;points=[];autosize=1;strokeColor=default;fillColor=none;" parent="ksFMzYPhadkrR75nrk3E-81" vertex="1">
          <mxGeometry width="30" height="30" as="geometry" />
        </mxCell>
        <mxCell id="ksFMzYPhadkrR75nrk3E-9" value="5" style="text;html=1;align=center;verticalAlign=middle;resizable=0;points=[];autosize=1;strokeColor=default;fillColor=none;" parent="1" vertex="1">
          <mxGeometry x="446" y="565" width="30" height="30" as="geometry" />
        </mxCell>
        <mxCell id="ksFMzYPhadkrR75nrk3E-30" value="3" style="text;html=1;align=center;verticalAlign=middle;resizable=0;points=[];autosize=1;strokeColor=default;fillColor=none;" parent="1" vertex="1">
          <mxGeometry x="446" y="505" width="30" height="30" as="geometry" />
        </mxCell>
        <mxCell id="ksFMzYPhadkrR75nrk3E-33" value="2" style="text;html=1;align=center;verticalAlign=middle;resizable=0;points=[];autosize=1;strokeColor=default;fillColor=none;" parent="1" vertex="1">
          <mxGeometry x="446" y="535" width="30" height="30" as="geometry" />
        </mxCell>
        <mxCell id="ksFMzYPhadkrR75nrk3E-82" value="6" style="text;html=1;align=center;verticalAlign=middle;resizable=0;points=[];autosize=1;strokeColor=default;fillColor=none;" parent="1" vertex="1">
          <mxGeometry x="486" y="565" width="30" height="30" as="geometry" />
        </mxCell>
        <mxCell id="ksFMzYPhadkrR75nrk3E-83" value="0" style="text;html=1;align=center;verticalAlign=middle;resizable=0;points=[];autosize=1;strokeColor=none;fillColor=none;" parent="1" vertex="1">
          <mxGeometry x="576" y="355" width="30" height="30" as="geometry" />
        </mxCell>
        <mxCell id="ksFMzYPhadkrR75nrk3E-84" value="把下一个更大的温度想象成山峰，只有比当前更高的才能看到" style="text;html=1;align=center;verticalAlign=middle;resizable=0;points=[];autosize=1;strokeColor=none;fillColor=none;" parent="1" vertex="1">
          <mxGeometry x="566" y="399" width="350" height="30" as="geometry" />
        </mxCell>
        <mxCell id="ksFMzYPhadkrR75nrk3E-85" value="当前栈内存放温度用于理解，实际解题时栈内存放温度的索引" style="text;html=1;align=center;verticalAlign=middle;resizable=0;points=[];autosize=1;strokeColor=none;fillColor=none;" parent="1" vertex="1">
          <mxGeometry x="416" y="665" width="350" height="30" as="geometry" />
        </mxCell>
      </root>
    </mxGraphModel>
  </diagram>
</mxfile>
